<svg width="28" height="28" fill="none" xmlns="http://www.w3.org/2000/svg"><g clip-path="url(#a)"><path d="M6.394 2.324a1.186 1.186 0 0 0-1.776-.11l-1.81 1.811c-.845.847-1.156 2.046-.787 3.097a30.744 30.744 0 0 0 7.294 11.564A30.747 30.747 0 0 0 20.88 25.98c1.052.37 2.25.058 3.098-.787l1.81-1.81a1.188 1.188 0 0 0-.111-1.776l-4.037-3.14a1.187 1.187 0 0 0-1.015-.213l-3.833.957a3.053 3.053 0 0 1-2.9-.803l-4.298-4.3a3.054 3.054 0 0 1-.805-2.9l.96-3.832a1.186 1.186 0 0 0-.214-1.015l-3.14-4.037ZM3.297.894a3.054 3.054 0 0 1 4.571.285l3.14 4.036c.575.74.778 1.705.55 2.615l-.957 3.832a1.187 1.187 0 0 0 .312 1.125l4.3 4.3a1.187 1.187 0 0 0 1.127.311l3.83-.957a3.055 3.055 0 0 1 2.615.552l4.035 3.139a3.053 3.053 0 0 1 .286 4.57l-1.81 1.809c-1.295 1.295-3.23 1.864-5.034 1.228a32.608 32.608 0 0 1-12.268-7.735A32.61 32.61 0 0 1 .259 7.738c-.634-1.802-.065-3.74 1.23-5.034L3.3.894h-.002Z" fill="#000"/></g><defs><clipPath id="a"><path fill="#fff" d="M0 0h28v28H0z"/></clipPath></defs></svg>