<svg width="28" height="28" fill="none" xmlns="http://www.w3.org/2000/svg"><g clip-path="url(#a)"><path fill-rule="evenodd" clip-rule="evenodd" d="M3.299.894a3.054 3.054 0 0 1 4.567.285l3.142 4.036c.575.74.778 1.704.55 2.614l-.956 3.833a1.186 1.186 0 0 0 .311 1.125l4.3 4.3a1.187 1.187 0 0 0 1.127.311l3.83-.957a3.053 3.053 0 0 1 2.615.551l4.036 3.14a3.053 3.053 0 0 1 .285 4.569l-1.81 1.81c-1.295 1.294-3.23 1.863-5.034 1.228a32.609 32.609 0 0 1-12.268-7.735A32.61 32.61 0 0 1 .26 7.738c-.633-1.802-.065-3.74 1.23-5.034L3.3.894Z" fill="#CCC"/></g><defs><clipPath id="a"><path fill="#fff" d="M0 0h28v28H0z"/></clipPath></defs></svg>