<svg width="28" height="28" fill="none" xmlns="http://www.w3.org/2000/svg"><path d="M28 14c0 6.765-6.268 12.25-14 12.25a15.855 15.855 0 0 1-4.107-.535c-1.022.518-3.369 1.512-7.317 2.159-.35.056-.616-.308-.478-.633.62-1.463 1.18-3.413 1.348-5.191C1.302 19.898 0 17.08 0 14 0 7.234 6.269 1.75 14 1.75c7.732 0 14 5.484 14 12.25ZM8.75 14a1.75 1.75 0 1 0-3.5 0 1.75 1.75 0 0 0 3.5 0Zm7 0a1.75 1.75 0 1 0-3.5 0 1.75 1.75 0 0 0 3.5 0ZM21 15.75a1.75 1.75 0 1 0 0-3.5 1.75 1.75 0 0 0 0 3.5Z" fill="#CCC"/></svg>