<svg width="28" height="28" fill="none" xmlns="http://www.w3.org/2000/svg"><path d="M8.75 14a1.75 1.75 0 1 1-3.5 0 1.75 1.75 0 0 1 3.5 0Zm7 0a1.75 1.75 0 1 1-3.5 0 1.75 1.75 0 0 1 3.5 0ZM21 15.75a1.75 1.75 0 1 0 0-3.5 1.75 1.75 0 0 0 0 3.5Z" fill="#000"/><path d="m3.789 27.655.035-.007c3.202-.635 5.159-1.473 6.069-1.933 1.34.357 2.72.537 4.107.535 7.732 0 14-5.485 14-12.25 0-6.766-6.268-12.25-14-12.25C6.269 1.75 0 7.234 0 14c0 3.08 1.3 5.898 3.447 8.05a18.264 18.264 0 0 1-.917 4.056l-.005.02c-.13.376-.273.747-.427 1.114-.138.326.13.69.478.634.405-.066.81-.14 1.213-.219Zm1.4-5.439a1.75 1.75 0 0 0-.503-1.402C2.832 18.953 1.75 16.57 1.75 14 1.75 8.414 7.007 3.5 14 3.5S26.25 8.414 26.25 14c0 5.588-5.257 10.5-12.25 10.5a14.103 14.103 0 0 1-3.654-.476 1.75 1.75 0 0 0-1.244.13c-.678.343-2.17.997-4.61 1.562.34-1.142.574-2.314.697-3.5Z" fill="#000"/></svg>