<svg width="20" height="20" fill="none" xmlns="http://www.w3.org/2000/svg"><g clip-path="url(#a)"><path d="M20 10.061C20 4.504 15.523 0 10 0 4.475 0-.003 4.504-.003 10.062c0 5.022 3.658 9.184 8.438 9.94V12.97H5.897v-2.908h2.54V7.845c0-2.521 1.494-3.914 3.778-3.914 1.095 0 2.239.196 2.239.196v2.475h-1.261c-1.242 0-1.63.777-1.63 1.573v1.887h2.773l-.442 2.908h-2.332V20c4.78-.755 8.438-4.918 8.438-9.939Z" fill="#3B5998"/></g><defs><clipPath id="a"><path fill="#fff" d="M0 0h20v20H0z"/></clipPath></defs></svg>