<svg width="32" height="32" fill="none" xmlns="http://www.w3.org/2000/svg"><rect width="32" height="32" rx="16" fill="#000"/><path d="M25.63 22.08h1.29V27h-7.35l-3.09-5.76h-.72V27H7.54v-4.92h1.32V8.58H7.54V3.66h8.22v12.18h.72l3.72-5.52h6.33v4.92H25.3l-2.55 2.85 2.88 3.99Z" fill="#FFE135"/><path d="m25.63 22.08-.405.293.15.207h.255v-.5Zm1.29 0h.5v-.5h-.5v.5Zm0 4.92v.5h.5V27h-.5Zm-7.35 0-.44.236.14.264h.3V27Zm-3.09-5.76.44-.236-.14-.264h-.3v.5Zm-.72 0v-.5h-.5v.5h.5Zm0 5.76v.5h.5V27h-.5Zm-8.22 0h-.5v.5h.5V27Zm0-4.92v-.5h-.5v.5h.5Zm1.32 0v.5h.5v-.5h-.5Zm0-13.5h.5v-.5h-.5v.5Zm-1.32 0h-.5v.5h.5v-.5Zm0-4.92v-.5h-.5v.5h.5Zm8.22 0h.5v-.5h-.5v.5Zm0 12.18h-.5v.5h.5v-.5Zm.72 0v.5h.266l.149-.22-.415-.28Zm3.72-5.52v-.5h-.266l-.149.22.415.28Zm6.33 0h.5v-.5h-.5v.5Zm0 4.92v.5h.5v-.5h-.5Zm-1.23 0v-.5h-.224l-.149.167.373.333Zm-2.55 2.85-.373-.333-.268.3.236.326.405-.293Zm2.88 4.49h1.29v-1h-1.29v1Zm.79-.5V27h1v-4.92h-1Zm.5 4.42h-7.35v1h7.35v-1Zm-6.91.264-3.09-5.76-.88.472 3.09 5.76.88-.472Zm-3.53-6.024h-.72v1h.72v-1Zm-1.22.5V27h1v-5.76h-1Zm.5 5.26H7.54v1h8.22v-1Zm-7.72.5v-4.92h-1V27h1Zm-.5-4.42h1.32v-1H7.54v1Zm1.82-.5V8.58h-1v13.5h1Zm-.5-14H7.54v1h1.32v-1Zm-.82.5V3.66h-1v4.92h1Zm-.5-4.42h8.22v-1H7.54v1Zm7.72-.5v12.18h1V3.66h-1Zm.5 12.68h.72v-1h-.72v1Zm1.135-.22 3.72-5.52-.83-.56-3.72 5.52.83.56Zm3.305-5.3h6.33v-1H20.2v1Zm5.83-.5v4.92h1v-4.92h-1Zm.5 4.42H25.3v1h1.23v-1Zm-1.603.167-2.55 2.85.746.666 2.55-2.85-.746-.666Zm-2.582 3.476 2.88 3.99.81-.586-2.88-3.99-.81.586Z" fill="#000"/></svg>