<svg width="28" height="28" fill="none" xmlns="http://www.w3.org/2000/svg"><path d="M14.62 2.006a.875.875 0 0 0-1.24 0l-10.5 10.5a.875.875 0 0 0-.255.619v12.25a.875.875 0 0 0 .875.875h7.875a.875.875 0 0 0 .875-.875v-7h3.5v7a.875.875 0 0 0 .875.875H24.5a.875.875 0 0 0 .875-.875v-12.25a.876.876 0 0 0-.256-.62l-2.369-2.367V4.375a.875.875 0 0 0-.875-.875h-1.75a.875.875 0 0 0-.875.875v2.263l-4.63-4.632ZM4.375 24.5V13.487L14 3.862l9.625 9.625V24.5H17.5v-7a.875.875 0 0 0-.875-.875h-5.25a.875.875 0 0 0-.875.875v7H4.375Z" fill="#000"/></svg>