<svg width="189" height="54" fill="none" xmlns="http://www.w3.org/2000/svg"><path d="M179.128 6.712h-1.376v-.624h-.512v3.6h.56V11h-3.36V9.688h.56v-3.6h-.512v.624h-1.376V4.776h6.016v1.936Zm9.098-.624h-.4v3.6h.4V11h-3.024V9.688h.384v-2.8L184.226 11h-1.184l-1.4-4.072v2.76h.384V11h-2.624V9.688h.4v-3.6h-.4V4.776h3.664l.832 2.496.8-2.496h3.528v1.312Z" fill="#111"/><path d="M22.356 34.096h1.548V40h-8.82l-3.708-6.912h-.864V40H.648v-5.904h1.584v-16.2H.648v-5.904h9.864v14.616h.864l4.464-6.624h7.596v5.904H21.96l-3.06 3.42 3.456 4.788Zm4.418-16.092v-6.012h7.344v6.012h-7.344ZM25.046 40v-5.904h1.584v-8.208h-1.584v-5.904h9.864v14.112h1.584V40H25.046Z" fill="#23ABD6"/><path d="M61.396 34.096V40H50.02v-5.904h1.512v-5.904c0-.792-.168-1.368-.504-1.728-.336-.384-.84-.576-1.512-.576-1.44 0-2.16.768-2.16 2.304v5.904h1.512V40H37.492v-5.904h1.584v-8.208h-1.584v-5.904h9.864v2.808c1.728-2.208 3.888-3.312 6.48-3.312 1.992 0 3.48.624 4.464 1.872 1.008 1.248 1.512 2.964 1.512 5.148v7.596h1.584Zm8.254 6.408c-2.448 0-4.296-.912-5.544-2.736-1.224-1.824-1.836-4.416-1.836-7.776 0-3.36.612-5.952 1.836-7.776 1.248-1.824 3.096-2.736 5.544-2.736 1.224 0 2.304.3 3.24.9.96.6 1.74 1.284 2.34 2.052v-4.536h-2.124v-5.904H83.51v22.104h1.584V40H75.23v-2.448c-.6.768-1.38 1.452-2.34 2.052-.936.6-2.016.9-3.24.9Zm3.492-6.408c.696 0 1.212-.18 1.548-.54.36-.384.54-.972.54-1.764v-3.6c0-.792-.18-1.368-.54-1.728-.336-.384-.852-.576-1.548-.576-.696 0-1.224.192-1.584.576-.336.36-.504.936-.504 1.728v3.6c0 .792.168 1.38.504 1.764.36.36.888.54 1.584.54Z" fill="#00BD08"/><path d="M96.981 40.504c-3.407 0-6.072-.888-7.991-2.664-1.92-1.8-2.88-4.416-2.88-7.848 0-3.432.96-6.036 2.88-7.812 1.92-1.8 4.584-2.7 7.992-2.7 3.383 0 5.819.888 7.307 2.664 1.512 1.752 2.268 3.936 2.268 6.552v2.592H94.894v.216c0 .888.263 1.548.791 1.98.528.408 1.404.612 2.629.612 1.464 0 2.855-.108 4.175-.324 1.32-.216 2.472-.492 3.456-.828v5.76c-.84.456-2.076.876-3.708 1.26-1.608.36-3.36.54-5.255.54Zm2.089-13.176v-.432c0-.816-.18-1.404-.54-1.764-.337-.36-.853-.54-1.549-.54-.695 0-1.224.192-1.584.576-.336.36-.504.936-.504 1.728v.432h4.177ZM123 19.48c.48 0 .936.048 1.368.144a4.73 4.73 0 0 1 1.08.36v6.876a8.188 8.188 0 0 0-3.168-.612c-1.512 0-2.676.396-3.492 1.188-.816.792-1.224 1.968-1.224 3.528v3.132h3.24V40H107.7v-5.904h1.584v-8.208H107.7v-5.904h9.864v2.628c.672-1.008 1.44-1.776 2.304-2.304.864-.552 1.908-.828 3.132-.828Z" fill="url(#a)"/><path d="M137.341 40.504c-3.408 0-6.072-.888-7.992-2.664-1.92-1.8-2.88-4.416-2.88-7.848 0-3.432.96-6.036 2.88-7.812 1.92-1.8 4.584-2.7 7.992-2.7 3.384 0 5.82.888 7.308 2.664 1.512 1.752 2.268 3.936 2.268 6.552v2.592h-11.664v.216c0 .888.264 1.548.792 1.98.528.408 1.404.612 2.628.612 1.464 0 2.856-.108 4.176-.324 1.32-.216 2.472-.492 3.456-.828v5.76c-.84.456-2.076.876-3.708 1.26-1.608.36-3.36.54-5.256.54Zm2.088-13.176v-.432c0-.816-.18-1.404-.54-1.764-.336-.36-.852-.54-1.548-.54-.696 0-1.224.192-1.584.576-.336.36-.504.936-.504 1.728v.432h4.176Zm32.463 6.768V40h-11.376v-5.904h1.512v-5.904c0-.792-.168-1.368-.504-1.728-.336-.384-.84-.576-1.512-.576-1.44 0-2.16.768-2.16 2.304v5.904h1.512V40h-11.376v-5.904h1.584v-8.208h-1.584v-5.904h9.864v2.808c1.728-2.208 3.888-3.312 6.48-3.312 1.992 0 3.48.624 4.464 1.872 1.008 1.248 1.512 2.964 1.512 5.148v7.596h1.584Z" fill="#E01616"/><defs><linearGradient id="a" x1="86.5" y1="0" x2="86.5" y2="54" gradientUnits="userSpaceOnUse"><stop stop-color="#FFBF00"/><stop offset="1" stop-color="#F2A50C"/></linearGradient></defs></svg>