<svg width="40" height="40" fill="none" xmlns="http://www.w3.org/2000/svg"><path d="M20 3.334C13 3.334 6.666 8.7 6.666 17c0 5.3 4.084 11.534 12.234 18.716a1.696 1.696 0 0 0 2.216 0C29.25 28.534 33.334 22.3 33.334 17 33.334 8.7 27 3.334 20 3.334ZM20 20a3.343 3.343 0 0 1-3.334-3.334c0-1.834 1.5-3.334 3.334-3.334s3.334 1.5 3.334 3.334S21.834 20 20 20Z" fill="url(#a)"/><defs><linearGradient id="a" x1="20" y1="3.334" x2="20" y2="36.128" gradientUnits="userSpaceOnUse"><stop stop-color="#FFBF00"/><stop offset="1" stop-color="#F2A50C"/></linearGradient></defs></svg>