<svg width="172" height="30" viewBox="0 0 172 30" fill="none" xmlns="http://www.w3.org/2000/svg">
<path d="M22.356 23.096H23.904V29H15.084L11.376 22.088H10.512V29H0.648V23.096H2.232V6.896H0.648V0.991998H10.512V15.608H11.376L15.84 8.984H23.436V14.888H21.96L18.9 18.308L22.356 23.096ZM26.7744 7.004V0.991998H34.1184V7.004H26.7744ZM25.0464 29V23.096H26.6304V14.888H25.0464V8.984H34.9104V23.096H36.4944V29H25.0464Z" fill="#23ABD6"/>
<path d="M61.3958 23.096V29H50.0198V23.096H51.5318V17.192C51.5318 16.4 51.3638 15.824 51.0278 15.464C50.6918 15.08 50.1878 14.888 49.5158 14.888C48.0758 14.888 47.3558 15.656 47.3558 17.192V23.096H48.8678V29H37.4918V23.096H39.0758V14.888H37.4918V8.984H47.3558V11.792C49.0838 9.584 51.2438 8.48 53.8358 8.48C55.8278 8.48 57.3158 9.104 58.2998 10.352C59.3078 11.6 59.8118 13.316 59.8118 15.5V23.096H61.3958ZM69.6502 29.504C67.2022 29.504 65.3542 28.592 64.1062 26.768C62.8822 24.944 62.2702 22.352 62.2702 18.992C62.2702 15.632 62.8822 13.04 64.1062 11.216C65.3542 9.392 67.2022 8.48 69.6502 8.48C70.8742 8.48 71.9542 8.78 72.8902 9.38C73.8502 9.98 74.6302 10.664 75.2302 11.432V6.896H73.1062V0.991998H83.5102V23.096H85.0942V29H75.2302V26.552C74.6302 27.32 73.8502 28.004 72.8902 28.604C71.9542 29.204 70.8742 29.504 69.6502 29.504ZM73.1422 23.096C73.8382 23.096 74.3542 22.916 74.6902 22.556C75.0502 22.172 75.2302 21.584 75.2302 20.792V17.192C75.2302 16.4 75.0502 15.824 74.6902 15.464C74.3542 15.08 73.8382 14.888 73.1422 14.888C72.4462 14.888 71.9182 15.08 71.5582 15.464C71.2222 15.824 71.0542 16.4 71.0542 17.192V20.792C71.0542 21.584 71.2222 22.172 71.5582 22.556C71.9182 22.916 72.4462 23.096 73.1422 23.096Z" fill="#00BD08"/>
<path d="M96.9815 29.504C93.5735 29.504 90.9095 28.616 88.9895 26.84C87.0695 25.04 86.1095 22.424 86.1095 18.992C86.1095 15.56 87.0695 12.956 88.9895 11.18C90.9095 9.38 93.5735 8.48 96.9815 8.48C100.365 8.48 102.801 9.368 104.289 11.144C105.801 12.896 106.557 15.08 106.557 17.696V20.288H94.8935V20.504C94.8935 21.392 95.1575 22.052 95.6855 22.484C96.2135 22.892 97.0895 23.096 98.3135 23.096C99.7775 23.096 101.169 22.988 102.489 22.772C103.809 22.556 104.961 22.28 105.945 21.944V27.704C105.105 28.16 103.869 28.58 102.237 28.964C100.629 29.324 98.8775 29.504 96.9815 29.504ZM99.0695 16.328V15.896C99.0695 15.08 98.8895 14.492 98.5295 14.132C98.1935 13.772 97.6775 13.592 96.9815 13.592C96.2855 13.592 95.7575 13.784 95.3975 14.168C95.0615 14.528 94.8935 15.104 94.8935 15.896V16.328H99.0695ZM123 8.48C123.48 8.48 123.936 8.528 124.368 8.624C124.8 8.72 125.16 8.84 125.448 8.984V15.86C124.464 15.452 123.408 15.248 122.28 15.248C120.768 15.248 119.604 15.644 118.788 16.436C117.972 17.228 117.564 18.404 117.564 19.964V23.096H120.804V29H107.7V23.096H109.284V14.888H107.7V8.984H117.564V11.612C118.236 10.604 119.004 9.836 119.868 9.308C120.732 8.756 121.776 8.48 123 8.48Z" fill="url(#paint0_linear_139_9)"/>
<path d="M137.341 29.504C133.933 29.504 131.269 28.616 129.349 26.84C127.429 25.04 126.469 22.424 126.469 18.992C126.469 15.56 127.429 12.956 129.349 11.18C131.269 9.38 133.933 8.48 137.341 8.48C140.725 8.48 143.161 9.368 144.649 11.144C146.161 12.896 146.917 15.08 146.917 17.696V20.288H135.253V20.504C135.253 21.392 135.517 22.052 136.045 22.484C136.573 22.892 137.449 23.096 138.673 23.096C140.137 23.096 141.529 22.988 142.849 22.772C144.169 22.556 145.321 22.28 146.305 21.944V27.704C145.465 28.16 144.229 28.58 142.597 28.964C140.989 29.324 139.237 29.504 137.341 29.504ZM139.429 16.328V15.896C139.429 15.08 139.249 14.492 138.889 14.132C138.553 13.772 138.037 13.592 137.341 13.592C136.645 13.592 136.117 13.784 135.757 14.168C135.421 14.528 135.253 15.104 135.253 15.896V16.328H139.429ZM171.892 23.096V29H160.516V23.096H162.028V17.192C162.028 16.4 161.86 15.824 161.524 15.464C161.188 15.08 160.684 14.888 160.012 14.888C158.572 14.888 157.852 15.656 157.852 17.192V23.096H159.364V29H147.988V23.096H149.572V14.888H147.988V8.984H157.852V11.792C159.58 9.584 161.74 8.48 164.332 8.48C166.324 8.48 167.812 9.104 168.796 10.352C169.804 11.6 170.308 13.316 170.308 15.5V23.096H171.892Z" fill="#E01616"/>
<defs>
<linearGradient id="paint0_linear_139_9" x1="86.5" y1="-11" x2="86.5" y2="43" gradientUnits="userSpaceOnUse">
<stop stop-color="#FFBF00"/>
<stop offset="1" stop-color="#F2A50C"/>
</linearGradient>
</defs>
</svg>
