<svg width="460" height="172" fill="none" xmlns="http://www.w3.org/2000/svg"><path d="M350.96 158.52c0-1.12.227-2.1.68-2.94.453-.853 1.073-1.507 1.86-1.96.8-.467 1.7-.7 2.7-.7.96 0 1.827.233 2.6.7.773.467 1.34 1.073 1.7 1.82v-6.24h1.4V164h-1.4v-2.44c-.333.76-.88 1.387-1.64 1.88-.76.48-1.653.72-2.68.72-1 0-1.9-.233-2.7-.7-.787-.467-1.407-1.127-1.86-1.98-.44-.853-.66-1.84-.66-2.96Zm9.54.02c0-.88-.18-1.653-.54-2.32a3.828 3.828 0 0 0-1.48-1.54 3.954 3.954 0 0 0-2.04-.54c-.773 0-1.467.173-2.08.52-.613.347-1.1.853-1.46 1.52-.347.653-.52 1.433-.52 2.34 0 .893.173 1.68.52 2.36.36.667.847 1.18 1.46 1.54.613.347 1.307.52 2.08.52.747 0 1.427-.18 2.04-.54a3.828 3.828 0 0 0 1.48-1.54c.36-.667.54-1.44.54-2.32Zm14.476-.56c0 .48-.013.847-.04 1.1h-9.06c.04.827.24 1.533.6 2.12.36.587.833 1.033 1.42 1.34.587.293 1.227.44 1.92.44.907 0 1.667-.22 2.28-.66a3.082 3.082 0 0 0 1.24-1.78h1.48a4.653 4.653 0 0 1-1.72 2.62c-.867.667-1.96 1-3.28 1-1.027 0-1.947-.227-2.76-.68a5.033 5.033 0 0 1-1.92-1.96c-.453-.853-.68-1.847-.68-2.98s.227-2.127.68-2.98a4.727 4.727 0 0 1 1.9-1.96c.813-.453 1.74-.68 2.78-.68 1.04 0 1.947.227 2.72.68a4.589 4.589 0 0 1 1.8 1.84c.427.76.64 1.607.64 2.54Zm-1.42-.04c.013-.813-.153-1.507-.5-2.08a3.24 3.24 0 0 0-1.38-1.3 4.239 4.239 0 0 0-1.92-.44c-1.04 0-1.927.333-2.66 1-.733.667-1.14 1.607-1.22 2.82h7.68Zm7.742 6.22c-1.254 0-2.28-.287-3.08-.86-.787-.587-1.227-1.38-1.32-2.38h1.44c.066.613.353 1.113.86 1.5.52.373 1.213.56 2.08.56.76 0 1.353-.18 1.78-.54.44-.36.66-.807.66-1.34 0-.373-.12-.68-.36-.92a2.435 2.435 0 0 0-.92-.56c-.36-.147-.854-.3-1.48-.46-.814-.213-1.474-.427-1.98-.64a3.503 3.503 0 0 1-1.3-.94c-.347-.427-.52-.993-.52-1.7 0-.533.16-1.027.48-1.48.32-.453.773-.813 1.36-1.08.586-.267 1.253-.4 2-.4 1.173 0 2.12.3 2.84.9.72.587 1.106 1.4 1.16 2.44h-1.4c-.04-.64-.294-1.153-.76-1.54-.454-.4-1.08-.6-1.88-.6-.707 0-1.28.167-1.72.5-.44.333-.661.747-.661 1.24 0 .427.127.78.381 1.06.266.267.593.48.98.64.386.147.906.313 1.56.5.786.213 1.413.42 1.88.62.466.2.866.493 1.2.88.333.387.506.9.52 1.54 0 .587-.16 1.113-.48 1.58-.32.453-.767.813-1.34 1.08-.574.267-1.234.4-1.98.4Zm5.795-5.64c0-1.12.226-2.1.68-2.94.453-.853 1.073-1.507 1.86-1.96.8-.467 1.7-.7 2.7-.7.96 0 1.826.233 2.6.7.773.467 1.34 1.073 1.7 1.82v-6.24h1.4V164h-1.4v-2.44c-.334.76-.88 1.387-1.64 1.88-.76.48-1.654.72-2.68.72-1 0-1.9-.233-2.7-.7-.787-.467-1.407-1.127-1.86-1.98-.44-.853-.66-1.84-.66-2.96Zm9.54.02c0-.88-.18-1.653-.54-2.32a3.834 3.834 0 0 0-1.48-1.54 3.959 3.959 0 0 0-2.04-.54c-.774 0-1.467.173-2.08.52-.614.347-1.1.853-1.46 1.52-.347.653-.52 1.433-.52 2.34 0 .893.173 1.68.52 2.36.36.667.846 1.18 1.46 1.54.613.347 1.306.52 2.08.52.746 0 1.426-.18 2.04-.54a3.834 3.834 0 0 0 1.48-1.54c.36-.667.54-1.44.54-2.32Zm14.476-.56c0 .48-.013.847-.04 1.1h-9.06c.04.827.24 1.533.6 2.12.36.587.833 1.033 1.42 1.34.587.293 1.227.44 1.92.44.907 0 1.667-.22 2.28-.66a3.082 3.082 0 0 0 1.24-1.78h1.48a4.653 4.653 0 0 1-1.72 2.62c-.867.667-1.96 1-3.28 1-1.027 0-1.947-.227-2.76-.68a5.033 5.033 0 0 1-1.92-1.96c-.453-.853-.68-1.847-.68-2.98s.227-2.127.68-2.98a4.727 4.727 0 0 1 1.9-1.96c.813-.453 1.74-.68 2.78-.68 1.04 0 1.947.227 2.72.68a4.589 4.589 0 0 1 1.8 1.84c.427.76.64 1.607.64 2.54Zm-1.42-.04c.013-.813-.153-1.507-.5-2.08a3.24 3.24 0 0 0-1.38-1.3 4.239 4.239 0 0 0-1.92-.44c-1.04 0-1.927.333-2.66 1-.733.667-1.14 1.607-1.22 2.82h7.68Zm8.89 4.96c2.453-1.84 4.346-3.487 5.68-4.94 1.346-1.467 2.02-2.9 2.02-4.3 0-.92-.234-1.653-.7-2.2-.454-.56-1.2-.84-2.24-.84-1.014 0-1.8.32-2.36.96-.547.627-.854 1.467-.92 2.52h-1.36c.08-1.48.533-2.627 1.36-3.44.84-.827 1.933-1.24 3.28-1.24 1.293 0 2.34.367 3.14 1.1.8.72 1.2 1.747 1.2 3.08 0 1.613-.674 3.18-2.02 4.7-1.334 1.507-2.98 2.98-4.94 4.42h7.4v1.18h-9.54v-1Zm11.725-6.2c0-2.293.353-4.073 1.06-5.34.707-1.267 1.973-1.9 3.8-1.9 1.827 0 3.093.633 3.8 1.9.707 1.267 1.06 3.047 1.06 5.34 0 2.333-.353 4.14-1.06 5.42-.707 1.28-1.973 1.92-3.8 1.92-1.84 0-3.113-.64-3.82-1.92-.693-1.28-1.04-3.087-1.04-5.42Zm8.34 0c0-1.24-.087-2.287-.26-3.14-.173-.853-.513-1.54-1.02-2.06s-1.24-.78-2.2-.78c-.96 0-1.693.26-2.2.78-.507.52-.847 1.207-1.02 2.06-.173.853-.26 1.9-.26 3.14 0 1.28.087 2.353.26 3.22.173.853.513 1.54 1.02 2.06s1.24.78 2.2.78c.96 0 1.693-.26 2.2-.78.507-.52.847-1.207 1.02-2.06.173-.867.26-1.94.26-3.22Zm3.304-5.78v-1.26h3.4V164h-1.42v-13.08h-1.98Zm8.38 9.26c.147.867.48 1.533 1 2 .52.467 1.233.7 2.14.7 1.253 0 2.18-.487 2.78-1.46.613-.987.893-2.613.84-4.88-.253.733-.74 1.313-1.46 1.74-.707.413-1.52.62-2.44.62-1.4 0-2.527-.42-3.38-1.26-.84-.84-1.26-2.007-1.26-3.5 0-.893.173-1.7.52-2.42a3.887 3.887 0 0 1 1.58-1.7c.707-.413 1.573-.62 2.6-.62 1.893 0 3.213.62 3.96 1.86.747 1.227 1.12 2.993 1.12 5.3 0 2.493-.373 4.367-1.12 5.62-.733 1.253-2 1.88-3.8 1.88-1.32 0-2.347-.353-3.08-1.06-.733-.72-1.167-1.66-1.3-2.82h1.3Zm3.08-2.48c.627 0 1.2-.127 1.72-.38a3.16 3.16 0 0 0 1.28-1.16c.32-.507.48-1.113.48-1.82 0-1.093-.313-1.993-.94-2.7-.613-.707-1.5-1.06-2.66-1.06-1.027 0-1.853.32-2.48.96-.613.64-.92 1.493-.92 2.56 0 1.12.307 2 .92 2.64.613.64 1.48.96 2.6.96Z" fill="#717171"/><path d="M59.616 90.256h4.128V106h-23.52l-9.888-18.432h-2.304V106H1.728V90.256h4.224v-43.2H1.728V31.312h26.304v38.976h2.304L42.24 52.624h20.256v15.744H58.56l-8.16 9.12 9.216 12.768Zm11.782-42.912V31.312h19.585v16.032H71.398ZM66.79 106V90.256h4.224V68.368H66.79V52.624h26.304v37.632h4.225V106H66.79Zm96.932-15.744V106h-30.336V90.256h4.032V74.512c0-2.112-.448-3.648-1.344-4.608-.896-1.024-2.24-1.536-4.032-1.536-3.84 0-5.76 2.048-5.76 6.144v15.744h4.032V106H99.978V90.256h4.224V68.368h-4.224V52.624h26.304v7.488c4.608-5.888 10.368-8.832 17.28-8.832 5.312 0 9.28 1.664 11.904 4.992 2.688 3.328 4.032 7.904 4.032 13.728v20.256h4.224Zm22.012 17.088c-6.528 0-11.456-2.432-14.784-7.296-3.264-4.864-4.896-11.776-4.896-20.736s1.632-15.872 4.896-20.736c3.328-4.864 8.256-7.296 14.784-7.296 3.264 0 6.144.8 8.64 2.4 2.56 1.6 4.64 3.424 6.24 5.472V47.056h-5.664V31.312h27.744v58.944h4.224V106h-26.304v-6.528c-1.6 2.048-3.68 3.872-6.24 5.472-2.496 1.6-5.376 2.4-8.64 2.4Zm9.312-17.088c1.856 0 3.232-.48 4.128-1.44.96-1.024 1.44-2.592 1.44-4.704v-9.6c0-2.112-.48-3.648-1.44-4.608-.896-1.024-2.272-1.536-4.128-1.536-1.856 0-3.264.512-4.224 1.536-.896.96-1.344 2.496-1.344 4.608v9.6c0 2.112.448 3.68 1.344 4.704.96.96 2.368 1.44 4.224 1.44Zm63.571 17.088c-9.088 0-16.192-2.368-21.312-7.104-5.12-4.8-7.68-11.776-7.68-20.928 0-9.152 2.56-16.096 7.68-20.832 5.12-4.8 12.224-7.2 21.312-7.2 9.024 0 15.52 2.368 19.488 7.104 4.032 4.672 6.048 10.496 6.048 17.472v6.912h-31.104v.576c0 2.368.704 4.128 2.112 5.28 1.408 1.088 3.744 1.632 7.008 1.632 3.904 0 7.616-.288 11.136-.864 3.52-.576 6.592-1.312 9.216-2.208v15.36c-2.24 1.216-5.536 2.336-9.888 3.36-4.288.96-8.96 1.44-14.016 1.44Zm5.568-35.136v-1.152c0-2.176-.48-3.744-1.44-4.704-.896-.96-2.272-1.44-4.128-1.44-1.856 0-3.264.512-4.224 1.536-.896.96-1.344 2.496-1.344 4.608v1.152h11.136Zm63.816-20.928c1.28 0 2.496.128 3.648.384 1.152.256 2.112.576 2.88.96V70.96c-2.624-1.088-5.44-1.632-8.448-1.632-4.032 0-7.136 1.056-9.312 3.168-2.176 2.112-3.264 5.248-3.264 9.408v8.352h8.64V106h-34.944V90.256h4.224V68.368h-4.224V52.624h26.304v7.008c1.792-2.688 3.84-4.736 6.144-6.144 2.304-1.472 5.088-2.208 8.352-2.208Zm38.241 56.064c-9.088 0-16.192-2.368-21.312-7.104-5.12-4.8-7.68-11.776-7.68-20.928 0-9.152 2.56-16.096 7.68-20.832 5.12-4.8 12.224-7.2 21.312-7.2 9.024 0 15.52 2.368 19.488 7.104 4.032 4.672 6.048 10.496 6.048 17.472v6.912h-31.104v.576c0 2.368.704 4.128 2.112 5.28 1.408 1.088 3.744 1.632 7.008 1.632 3.904 0 7.616-.288 11.136-.864 3.52-.576 6.592-1.312 9.216-2.208v15.36c-2.24 1.216-5.536 2.336-9.888 3.36-4.288.96-8.96 1.44-14.016 1.44Zm5.568-35.136v-1.152c0-2.176-.48-3.744-1.44-4.704-.896-.96-2.272-1.44-4.128-1.44-1.856 0-3.264.512-4.224 1.536-.896.96-1.344 2.496-1.344 4.608v1.152h11.136Zm86.568 18.048V106h-30.336V90.256h4.032V74.512c0-2.112-.448-3.648-1.344-4.608-.896-1.024-2.24-1.536-4.032-1.536-3.84 0-5.76 2.048-5.76 6.144v15.744h4.032V106h-30.336V90.256h4.224V68.368h-4.224V52.624h26.304v7.488c4.608-5.888 10.368-8.832 17.28-8.832 5.312 0 9.28 1.664 11.904 4.992 2.688 3.328 4.032 7.904 4.032 13.728v20.256h4.224Z" fill="#FFE135"/></svg>