<svg width="28" height="28" fill="none" xmlns="http://www.w3.org/2000/svg"><path d="M0 2.625a.875.875 0 0 1 .875-.875H3.5a.875.875 0 0 1 .849.663l.708 2.837h20.318a.875.875 0 0 1 .86 1.036l-2.626 14a.876.876 0 0 1-.859.714H7a.875.875 0 0 1-.86-.714L3.519 6.312l-.7-2.812H.874A.875.875 0 0 1 0 2.625ZM5.428 7l2.298 12.25h14.298L24.32 7H5.428ZM8.75 21a3.5 3.5 0 1 0 0 7 3.5 3.5 0 0 0 0-7ZM21 21a3.5 3.5 0 1 0 0 7 3.5 3.5 0 0 0 0-7ZM8.75 22.75a1.75 1.75 0 1 1 0 3.5 1.75 1.75 0 0 1 0-3.5Zm12.25 0a1.75 1.75 0 1 1 0 3.5 1.75 1.75 0 0 1 0-3.5Z" fill="#000"/></svg>