<svg width="17" height="16" fill="none" xmlns="http://www.w3.org/2000/svg"><g clip-path="url(#a)"><path d="M3.966 15.443c-.388.198-.827-.149-.749-.592l.833-4.73L.514 6.765c-.33-.314-.159-.888.284-.95l4.917-.696L7.907.792a.516.516 0 0 1 .93 0l2.193 4.327 4.917.696c.443.062.614.636.283.95l-3.536 3.356.834 4.73c.078.443-.362.79-.75.592l-4.407-2.256-4.406 2.256Z" fill="url(#b)"/></g><defs><linearGradient id="b" x1="8.372" y1=".5" x2="8.372" y2="15.5" gradientUnits="userSpaceOnUse"><stop stop-color="#FFBF00"/><stop offset="1" stop-color="#F2A50C"/></linearGradient><clipPath id="a"><path fill="#fff" transform="translate(.34)" d="M0 0h16.062v16H0z"/></clipPath></defs></svg>