<svg width="20" height="20" fill="none" xmlns="http://www.w3.org/2000/svg"><g clip-path="url(#a)"><path d="M17.001 2.908A9.817 9.817 0 0 0 9.992 0C4.534 0 .085 4.447.08 9.908c0 1.748.457 3.45 1.321 4.956L0 20l5.255-1.378a9.918 9.918 0 0 0 4.737 1.207h.005c5.46 0 9.908-4.448 9.913-9.913A9.872 9.872 0 0 0 17 2.908h.001ZM9.992 18.15a8.218 8.218 0 0 1-4.195-1.15l-.3-.18-3.117.818.833-3.041-.196-.314A8.2 8.2 0 0 1 1.76 9.902c0-4.532 3.696-8.23 8.239-8.23a8.2 8.2 0 0 1 5.825 2.414 8.196 8.196 0 0 1 2.41 5.825c-.006 4.549-3.702 8.24-8.24 8.24Zm4.52-6.167c-.247-.124-1.463-.723-1.692-.808-.228-.081-.394-.123-.556.124-.166.246-.641.807-.784.969-.143.166-.29.185-.537.062-.247-.125-1.045-.385-1.99-1.231-.738-.656-1.232-1.469-1.38-1.715-.142-.248-.013-.38.11-.504.11-.11.247-.29.37-.432.126-.143.167-.248.248-.413.082-.167.043-.31-.018-.433-.063-.124-.557-1.345-.765-1.838-.2-.486-.404-.419-.557-.425-.142-.009-.309-.009-.475-.009a.911.911 0 0 0-.661.309c-.228.248-.864.846-.864 2.067 0 1.222.888 2.395 1.013 2.562.122.166 1.742 2.665 4.229 3.74.587.256 1.05.407 1.41.522.595.19 1.13.162 1.558.1.475-.072 1.464-.6 1.673-1.178.205-.58.205-1.075.142-1.18-.061-.104-.227-.165-.475-.29Z" fill="#fff"/></g><defs><clipPath id="a"><path fill="#fff" d="M0 0h20v20H0z"/></clipPath></defs></svg>